<svg width="300" height="300" viewBox="0 0 300 300" fill="none" xmlns="http://www.w3.org/2000/svg">
<mask id="mask0_1_22484" style="mask-type:alpha" maskUnits="userSpaceOnUse" x="0" y="0" width="300" height="300">
<rect width="300" height="300" fill="white"/>
</mask>
<g mask="url(#mask0_1_22484)">
<path d="M306.828 276.299C314.064 261.98 293.384 190.385 149.999 190.385C46.5036 190.385 -0.997959 248.987 9.50368 278.686" fill="url(#paint0_radial_1_22484)"/>
<mask id="mask1_1_22484" style="mask-type:alpha" maskUnits="userSpaceOnUse" x="8" y="190" width="301" height="89">
<path d="M306.828 276.299C314.064 261.98 293.384 190.385 149.999 190.385C46.5036 190.385 -0.997959 248.987 9.50368 278.686" fill="white"/>
</mask>
<g mask="url(#mask1_1_22484)">
<ellipse opacity="0.671968" cx="127.886" cy="230.534" rx="7.88551" ry="4.38001" fill="url(#paint1_linear_1_22484)"/>
<ellipse opacity="0.451707" cx="212.057" cy="241.064" rx="12.4416" ry="6.83282" fill="url(#paint2_linear_1_22484)"/>
<ellipse opacity="0.729957" cx="66.7795" cy="205.627" rx="12.4416" ry="6.83282" fill="url(#paint3_linear_1_22484)"/>
</g>
<path opacity="0.716378" d="M108.765 198.646C103.93 204.118 123.065 209.174 158.269 210.361C196.605 220.806 214.026 223.639 221.068 218.241C228.11 212.842 197.88 195.997 174.214 190.675C150.547 185.352 137.546 188.802 123.036 192.627C121.072 193.144 122.046 192.748 117.589 194.245C113.132 195.742 109.941 197.316 108.765 198.646Z" fill="url(#paint4_linear_1_22484)"/>
<path d="M160.576 167.682C160.576 167.682 145.735 184.216 154.821 194.41C143.25 195.14 135.631 200.663 135.631 200.663L129.33 177.938L160.576 167.682Z" fill="url(#paint5_linear_1_22484)"/>
<path d="M136.09 199.425C136.09 199.425 124.54 194.494 119.924 194.486C115.307 194.478 129.589 177.21 129.589 177.21L137.934 197.842L136.09 199.425Z" fill="url(#paint6_linear_1_22484)"/>
<path fill-rule="evenodd" clip-rule="evenodd" d="M46.2032 175.474C76.3893 205.307 125.106 205.137 155.233 175.01C185.36 144.883 185.53 96.1665 155.697 65.9804L46.2032 175.474Z" fill="url(#paint7_linear_1_22484)"/>
<ellipse cx="101.278" cy="121.707" rx="17.1108" ry="77.4238" transform="rotate(45 101.278 121.707)" fill="url(#paint8_linear_1_22484)"/>
<mask id="mask2_1_22484" style="mask-type:alpha" maskUnits="userSpaceOnUse" x="45" y="65" width="113" height="113">
<ellipse cx="101.278" cy="121.707" rx="17.1108" ry="77.4238" transform="rotate(45 101.278 121.707)" fill="white"/>
</mask>
<g mask="url(#mask2_1_22484)">
<path d="M123.574 126.631L92.1928 111.513V111.513L104.306 142.913" fill="url(#paint9_linear_1_22484)"/>
</g>
<ellipse cx="89.1769" cy="108.955" rx="11.0605" ry="11.0989" transform="rotate(-45 89.1769 108.955)" fill="url(#paint10_linear_1_22484)"/>
<path fill-rule="evenodd" clip-rule="evenodd" d="M54.0178 100.166C54.5597 100.167 55.0409 99.9272 55.4015 99.5666C55.8222 99.1459 56.032 98.5743 56.0009 97.9421C55.6601 91.9516 57.9081 86.0856 62.1455 81.8483C66.3227 77.671 72.1285 75.4229 78.0587 75.7034C79.2327 75.7354 80.2547 74.834 80.2829 73.6602C80.3111 72.4863 79.4064 71.4614 78.2324 71.4294C71.1282 71.1169 64.1492 73.8147 59.1305 78.8333C54.0518 83.9121 51.3842 90.9814 51.757 98.146C51.8492 99.32 52.8441 100.255 54.0178 100.166ZM67.158 104.112C67.6793 104.038 68.1347 103.838 68.4625 103.51C68.8796 103.093 69.1352 102.454 69.0503 101.774C68.6345 98.6163 69.6398 95.5691 71.7852 93.4237C73.9008 91.3081 76.8862 90.3007 79.9797 90.6527C81.1562 90.8161 82.2054 89.9583 82.2569 88.7583C82.3403 87.5902 81.4088 86.4799 80.2025 86.3463C75.8411 85.8586 71.6066 87.2856 68.6268 90.2653C65.5577 93.3345 64.1328 97.6307 64.7162 102.088C64.8797 103.264 65.958 104.164 67.158 104.112Z" fill="url(#paint11_linear_1_22484)"/>
<path d="M39.0728 97.5829C38.7138 97.942 38.2355 98.1818 37.668 98.2128C36.5032 98.2449 35.5492 97.3508 35.4619 96.1862C35.0941 85.5849 39.2055 75.2139 46.7161 67.7034C50.5091 63.9103 54.9352 61.0078 59.7585 59.1026C60.1368 58.9062 63.3676 58.4501 63.8317 59.8359C64.2957 61.2217 61.2026 63.1162 61.2026 63.1162C56.9607 64.8119 53.0663 67.3742 49.7266 70.7139C43.0539 77.3866 39.4225 86.6219 39.7327 96.0884C39.7019 96.5962 39.4618 97.1939 39.0728 97.5829Z" fill="url(#paint12_linear_1_22484)"/>
<mask id="mask3_1_22484" style="mask-type:alpha" maskUnits="userSpaceOnUse" x="35" y="58" width="29" height="41">
<path d="M39.0728 97.5829C38.7138 97.942 38.2355 98.1818 37.668 98.2128C36.5032 98.2449 35.5492 97.3508 35.4619 96.1862C35.0941 85.5849 39.2055 75.2139 46.7161 67.7034C50.5091 63.9103 54.9352 61.0078 59.7585 59.1026C60.1368 58.9062 63.3676 58.4501 63.8317 59.8359C64.2957 61.2217 61.2026 63.1162 61.2026 63.1162C56.9607 64.8119 53.0663 67.3742 49.7266 70.7139C43.0539 77.3866 39.4225 86.6219 39.7327 96.0884C39.7019 96.5962 39.4618 97.1939 39.0728 97.5829Z" fill="white"/>
</mask>
<g mask="url(#mask3_1_22484)">
</g>
<path fill-rule="evenodd" clip-rule="evenodd" d="M80.7342 53.8348C80.098 53.1986 79.0666 53.1986 78.4305 53.8348L74.207 58.0582L69.9836 53.8348C69.3474 53.1986 68.316 53.1986 67.6799 53.8348C67.0437 54.4709 67.0437 55.5023 67.6799 56.1385L71.9033 60.3619L67.6799 64.5853C67.0437 65.2215 67.0437 66.2529 67.6799 66.889C68.316 67.5252 69.3474 67.5252 69.9836 66.889L74.207 62.6656L78.4305 66.889C79.0666 67.5252 80.098 67.5252 80.7342 66.889C81.3703 66.2529 81.3703 65.2215 80.7342 64.5853L76.5107 60.3619L80.7342 56.1385C81.3703 55.5023 81.3703 54.4709 80.7342 53.8348Z" fill="#D3D3D3"/>
<path d="M199.508 173.449C199.508 173.449 198.748 175.668 198.748 177.228C197.988 190.811 199.872 214.956 199.872 214.956H202.799L207.12 179.635L212.976 214.956H215.855C215.855 214.956 216.235 191.566 215.095 177.228C215.095 175.684 214.432 174.204 214.432 174.204L199.508 173.449Z" fill="url(#paint13_linear_1_22484)"/>
<path d="M194.566 154.714L190.868 152.097L190.904 150.058L200.296 144.667L202.633 141.916L206.106 139.711L206.337 140.092L203.76 142.69L202.74 142.822C202.74 142.822 202.72 143.241 202.72 143.954C202.72 144.667 202.183 145.455 202.183 145.455L194.819 150.881L196.405 151.672L194.566 154.714Z" fill="#FFE9E9"/>
<path d="M215.475 159.975L218.389 163.384L219.782 164.126L230.681 154.266L230.232 151.294L219.782 159.975L217.375 157.76L215.475 159.975Z" fill="#FFE9E9"/>
<path d="M230.388 154.314L235.067 152.714L236.003 151.793V149.951C236.003 149.951 235.535 149.03 235.067 149.03C234.599 149.03 230.388 150.872 230.388 150.872C230.388 150.872 229.92 152.253 229.92 152.714C229.92 153.174 230.388 154.314 230.388 154.314Z" fill="#FFE9E9"/>
<path d="M232.198 144.5H235.247C235.665 144.5 236.003 144.839 236.003 145.257V152.802C236.003 153.22 235.665 153.559 235.247 153.559H232.198C231.78 153.559 231.441 153.22 231.441 152.802V145.257C231.441 144.839 231.78 144.5 232.198 144.5Z" fill="#E9E9E9"/>
<path d="M230.41 149.155C230.41 149.155 232.373 148.275 232.863 148.275C233.354 148.275 231.392 150.162 231.392 150.162C231.392 150.162 231.392 152.049 230.41 152.049C229.429 152.049 230.41 149.155 230.41 149.155Z" fill="#FFE9E9"/>
<path d="M218.67 157.333L215.648 161.107L213.489 159.12C213.489 159.12 214.388 164.986 214.785 167.901C215.181 170.816 214.785 175.593 214.785 175.593C214.785 175.593 209.681 176.458 206.582 176.687C203.483 176.915 199.073 175.516 199.073 175.516C199.073 175.516 197.839 166.391 199.073 157.195C199.073 157.195 193.806 155.259 193.806 155.259L196.087 151.017C196.087 151.017 197.839 151.672 199.889 151.888C201.939 152.105 203.691 151.888 203.691 151.888L209.393 151.294C209.393 151.294 213.104 151.486 213.955 152.328C214.806 153.17 218.67 157.333 218.67 157.333Z" fill="url(#paint14_linear_1_22484)"/>
<path fill-rule="evenodd" clip-rule="evenodd" d="M208.012 147.143H204.795V151.766C204.795 151.766 206.082 153.756 206.082 154.412C206.082 155.069 208.012 151.766 208.012 151.766V147.143Z" fill="#FECECD"/>
<ellipse cx="206.218" cy="146.432" rx="2.88999" ry="4.5" fill="#FFE9E9"/>
<path fill-rule="evenodd" clip-rule="evenodd" d="M203.046 146.932C203.277 146.074 203.277 144.183 203.74 144.121C204.202 144.059 205.127 144.418 206.052 143.723C206.514 143.341 206.745 143.294 206.745 143.102C209.057 143.558 207.675 144.936 208.826 146.453C208.946 146.612 209.289 146.453 209.289 146.453C209.289 146.453 209.289 142.717 209.057 142.384C208.826 142.05 207.901 140.708 207.439 141.666C207.439 141.187 206.514 140.693 205.589 141.06C204.665 141.426 203.277 142.144 203.046 143.102C202.815 144.059 202.584 145.975 203.046 146.932Z" fill="#513450"/>
<path d="M200.514 214.702L199.584 215.959C199.041 216.693 198.748 217.582 198.748 218.495V218.495C198.748 218.552 198.795 218.599 198.852 218.599H203.215C203.458 218.599 203.655 218.402 203.655 218.159V218.159C203.655 217.166 203.43 216.186 202.998 215.291L202.713 214.702H200.514Z" fill="#677285"/>
<path d="M215.574 214.702L216.504 215.959C217.047 216.693 217.34 217.582 217.34 218.495V218.495C217.34 218.552 217.293 218.599 217.236 218.599H212.873C212.63 218.599 212.433 218.402 212.433 218.159V218.159C212.433 217.166 212.658 216.186 213.09 215.291L213.375 214.702H215.574Z" fill="#677285"/>
</g>
<defs>
<radialGradient id="paint0_radial_1_22484" cx="0" cy="0" r="1" gradientUnits="userSpaceOnUse" gradientTransform="translate(138.187 221.008) rotate(-90) scale(51.3403 536.198)">
<stop stop-color="#EBEDF0" stop-opacity="0.24"/>
<stop offset="0.536775" stop-color="#EBEDF0" stop-opacity="0.845525"/>
<stop offset="1" stop-color="#E0E4E7" stop-opacity="0.01"/>
</radialGradient>
<linearGradient id="paint1_linear_1_22484" x1="121.538" y1="229.373" x2="123.941" y2="234.51" gradientUnits="userSpaceOnUse">
<stop stop-color="#E1E7EA"/>
<stop offset="1" stop-color="#D0D6DC"/>
</linearGradient>
<linearGradient id="paint2_linear_1_22484" x1="201.61" y1="240.425" x2="206.006" y2="249.594" gradientUnits="userSpaceOnUse">
<stop stop-color="#E1E7EA"/>
<stop offset="1" stop-color="#D0D6DC"/>
</linearGradient>
<linearGradient id="paint3_linear_1_22484" x1="58.8465" y1="205.738" x2="61.3338" y2="215.647" gradientUnits="userSpaceOnUse">
<stop stop-color="#FBFBFB"/>
<stop offset="1" stop-color="#D9DFE3"/>
</linearGradient>
<linearGradient id="paint4_linear_1_22484" x1="343.483" y1="213.379" x2="338.797" y2="132.938" gradientUnits="userSpaceOnUse">
<stop stop-color="#D5E1F0" stop-opacity="0.01"/>
<stop offset="1" stop-color="#D9DDE2"/>
</linearGradient>
<linearGradient id="paint5_linear_1_22484" x1="123.431" y1="186.908" x2="149.037" y2="198.039" gradientUnits="userSpaceOnUse">
<stop stop-color="#F8FBFF"/>
<stop offset="1" stop-color="#D9DDE2"/>
</linearGradient>
<linearGradient id="paint6_linear_1_22484" x1="125.953" y1="203.406" x2="139.891" y2="191.473" gradientUnits="userSpaceOnUse">
<stop stop-color="#F8FBFF"/>
<stop offset="1" stop-color="#D9DDE2"/>
</linearGradient>
<linearGradient id="paint7_linear_1_22484" x1="79.3042" y1="226.896" x2="196.675" y2="142.685" gradientUnits="userSpaceOnUse">
<stop stop-color="#F8FBFF"/>
<stop offset="1" stop-color="#D9DDE2"/>
</linearGradient>
<linearGradient id="paint8_linear_1_22484" x1="93.4968" y1="-1.06676" x2="24.806" y2="24.8504" gradientUnits="userSpaceOnUse">
<stop stop-color="#E6ECF3"/>
<stop offset="1" stop-color="#D9DDE2"/>
</linearGradient>
<linearGradient id="paint9_linear_1_22484" x1="98.2958" y1="139.216" x2="117.221" y2="124.788" gradientUnits="userSpaceOnUse">
<stop stop-color="white"/>
<stop offset="1" stop-color="#CCD7E7"/>
</linearGradient>
<linearGradient id="paint10_linear_1_22484" x1="74.0514" y1="105.521" x2="87.6108" y2="123.165" gradientUnits="userSpaceOnUse">
<stop stop-color="#FDFDFD"/>
<stop offset="1" stop-color="#D7DBE0"/>
</linearGradient>
<linearGradient id="paint11_linear_1_22484" x1="107.866" y1="61.0079" x2="70.2237" y2="42.1467" gradientUnits="userSpaceOnUse">
<stop stop-color="#EEEEEE"/>
<stop offset="1" stop-color="#D8D8D8"/>
</linearGradient>
<linearGradient id="paint12_linear_1_22484" x1="92.9216" y1="41.7085" x2="69.4604" y2="25.4484" gradientUnits="userSpaceOnUse">
<stop stop-color="#EEEEEE"/>
<stop offset="1" stop-color="#D8D8D8"/>
</linearGradient>
<linearGradient id="paint13_linear_1_22484" x1="215.885" y1="214.956" x2="215.885" y2="173.76" gradientUnits="userSpaceOnUse">
<stop stop-color="#A1A7B8"/>
<stop offset="1" stop-color="#7B8195"/>
</linearGradient>
<linearGradient id="paint14_linear_1_22484" x1="231.248" y1="162.752" x2="209.711" y2="189.69" gradientUnits="userSpaceOnUse">
<stop stop-color="#E5E9F0"/>
<stop offset="1" stop-color="#D2DAE8"/>
</linearGradient>
</defs>
</svg>
