<svg width="1062" height="870" viewBox="0 0 1062 870" fill="none" xmlns="http://www.w3.org/2000/svg">
<g id="No Results">
<g id="circle">
<path id="Stroke 1" d="M34.8135 399V408" stroke="#D2D8DF" stroke-width="2.921" stroke-linecap="round"/>
<g id="Group 8">
<path id="Stroke 2" d="M14.6016 403.876L21.9558 411.447" stroke="#D2D8DF" stroke-width="2.921" stroke-linecap="round"/>
<path id="Stroke 4" d="M6 424.029H16.3989" stroke="#D2D8DF" stroke-width="2.921" stroke-linecap="round"/>
<path id="Stroke 6" d="M13.7607 444.541L21.115 436.971" stroke="#D2D8DF" stroke-width="2.921" stroke-linecap="round"/>
</g>
<path id="Stroke 9" d="M34.8135 447V438" stroke="#D2D8DF" stroke-width="2.921" stroke-linecap="round"/>
<path id="Stroke 10" d="M49.8135 441L43.8135 435" stroke="#D2D8DF" stroke-width="2.921" stroke-linecap="round"/>
<path id="Stroke 11" d="M61.8135 426H52.8135" stroke="#D2D8DF" stroke-width="2.921" stroke-linecap="round"/>
<path id="Stroke 12" d="M55.8135 405L49.8135 411" stroke="#D2D8DF" stroke-width="2.921" stroke-linecap="round"/>
<path id="Stroke 13" d="M517.813 6V12" stroke="#D2D8DF" stroke-width="2.921" stroke-linecap="round"/>
<path id="Stroke 15" d="M499.813 24H505.813" stroke="#D2D8DF" stroke-width="2.921" stroke-linecap="round"/>
<path id="Stroke 16" d="M517.813 42V36" stroke="#D2D8DF" stroke-width="2.921" stroke-linecap="round"/>
<path id="Stroke 17" d="M532.813 24H526.813" stroke="#D2D8DF" stroke-width="2.921" stroke-linecap="round"/>
<path id="Stroke 18" d="M169.813 258V267" stroke="#D2D8DF" stroke-width="2.921" stroke-linecap="round"/>
<path id="Stroke 19" d="M142.813 285H151.813" stroke="#D2D8DF" stroke-width="2.921" stroke-linecap="round"/>
<path id="Stroke 20" d="M169.813 309V300" stroke="#D2D8DF" stroke-width="2.921" stroke-linecap="round"/>
<path id="Stroke 21" d="M193.813 285H184.813" stroke="#D2D8DF" stroke-width="2.921" stroke-linecap="round"/>
<g id="Group 42">
<path id="Stroke 22" d="M815.578 585.116C822.747 585.116 828.562 590.932 828.562 598.103C828.562 605.277 822.747 611.091 815.578 611.091C808.408 611.091 802.594 605.277 802.594 598.103" stroke="#D2D8DF" stroke-width="2.921" stroke-linecap="round"/>
<path id="Fill 26" fill-rule="evenodd" clip-rule="evenodd" d="M875.001 467.29C882.71 464.885 894.528 455.456 897.263 445.312C899.744 454.279 910.143 464.885 919.525 465.687C908.964 469.427 898.865 480.537 897.263 489.265C896.173 480.369 882.206 468.586 875.001 467.29" fill="#EBECEE"/>
<path id="Fill 28" fill-rule="evenodd" clip-rule="evenodd" d="M83.6338 581.115C87.4898 579.913 93.396 575.2 94.7636 570.128C96.004 574.609 101.202 579.913 105.893 580.316C100.614 582.183 95.5659 587.739 94.7636 592.103C94.2186 587.655 87.2351 581.763 83.6338 581.115" fill="#EBECEE"/>
<path id="Fill 30" fill-rule="evenodd" clip-rule="evenodd" d="M155.191 163.791C155.191 169.355 150.683 173.862 145.123 173.862C139.561 173.862 135.056 169.355 135.056 163.791C135.056 158.23 139.561 153.721 145.123 153.721C150.683 153.721 155.191 158.23 155.191 163.791" fill="#D1D8DF"/>
<path id="Fill 32" fill-rule="evenodd" clip-rule="evenodd" d="M827.473 190.832C827.473 200.128 819.937 207.663 810.646 207.663C801.35 207.663 793.816 200.128 793.816 190.832C793.816 181.536 801.35 174 810.646 174C819.937 174 827.473 181.536 827.473 190.832" fill="#EBECEE"/>
<path id="Fill 34" fill-rule="evenodd" clip-rule="evenodd" d="M1060.56 145.228C1060.56 152.603 1054.59 158.58 1047.21 158.58C1039.84 158.58 1033.87 152.603 1033.87 145.228C1033.87 137.853 1039.84 131.877 1047.21 131.877C1054.59 131.877 1060.56 137.853 1060.56 145.228" fill="#EBECEE"/>
<path id="Stroke 36" fill-rule="evenodd" clip-rule="evenodd" d="M343.347 768.802C343.347 773.452 339.58 777.22 334.932 777.22C330.286 777.22 326.52 773.452 326.52 768.802C326.52 764.153 330.286 760.385 334.932 760.385C339.58 760.385 343.347 764.153 343.347 768.802Z" stroke="#D2D8DF" stroke-width="2.921" stroke-linecap="round"/>
<path id="Stroke 38" fill-rule="evenodd" clip-rule="evenodd" d="M338.341 99.0952C338.341 104.659 333.833 109.166 328.273 109.166C322.713 109.166 318.205 104.659 318.205 99.0952C318.205 93.5339 322.713 89.0248 328.273 89.0248C333.833 89.0248 338.341 93.5339 338.341 99.0952Z" stroke="#D2D8DF" stroke-width="2.921" stroke-linecap="round"/>
<path id="Stroke 40" fill-rule="evenodd" clip-rule="evenodd" d="M595.152 862.008C588.719 864.456 581.519 861.223 579.071 854.791C576.623 848.356 579.853 841.151 586.289 838.705C592.72 836.257 599.92 839.488 602.367 845.923C604.817 852.358 601.585 859.56 595.152 862.008Z" stroke="#D2D8DF" stroke-width="2.921" stroke-linecap="round"/>
</g>
</g>
<g id="search">
<g id="documents">
<path id="Fill 1" fill-rule="evenodd" clip-rule="evenodd" d="M591.317 624H345.303C327.987 624 313.813 609.784 313.813 592.41V241.582C313.813 224.209 327.987 210 345.303 210H591.317C608.64 210 622.813 224.209 622.813 241.582V592.41C622.813 609.784 608.64 624 591.317 624" fill="#E0E2EE"/>
<path id="Fill 3" fill-rule="evenodd" clip-rule="evenodd" d="M570.317 639H324.303C306.987 639 292.813 624.784 292.813 607.41V256.582C292.813 239.209 306.987 225 324.303 225H570.317C587.64 225 601.813 239.209 601.813 256.582V607.41C601.813 624.784 587.64 639 570.317 639" fill="#E8EBF2"/>
<path id="Fill 5" fill-rule="evenodd" clip-rule="evenodd" d="M549.891 650.842H303.368C286.017 650.842 271.813 636.685 271.813 619.383V270.008C271.813 252.706 286.017 238.556 303.368 238.556H549.891C567.249 238.556 581.452 252.706 581.452 270.008V619.383C581.452 636.685 567.249 650.842 549.891 650.842" fill="#D8DBEA"/>
<path id="Fill 8" fill-rule="evenodd" clip-rule="evenodd" d="M549.891 650.842H303.368C286.017 650.842 271.813 636.685 271.813 619.383V270.008C271.813 252.706 286.017 238.556 303.368 238.556H549.891C567.249 238.556 581.452 252.706 581.452 270.008V619.383C581.452 636.685 567.249 650.842 549.891 650.842" fill="#F1F2F7"/>
<path id="Fill 11" fill-rule="evenodd" clip-rule="evenodd" d="M514.357 345H332.27C327.07 345 322.813 340.951 322.813 336.003C322.813 331.049 327.07 327 332.27 327H514.357C519.557 327 523.813 331.049 523.813 336.003C523.813 340.951 519.557 345 514.357 345" fill="#E0E2EE"/>
<path id="Fill 13" fill-rule="evenodd" clip-rule="evenodd" d="M514.357 399H332.27C327.07 399 322.813 394.951 322.813 390.003C322.813 385.049 327.07 381 332.27 381H514.357C519.557 381 523.813 385.049 523.813 390.003C523.813 394.951 519.557 399 514.357 399" fill="#E0E2EE"/>
<path id="Fill 15" fill-rule="evenodd" clip-rule="evenodd" d="M514.357 453H332.27C327.07 453 322.813 448.951 322.813 444.003C322.813 439.056 327.07 435 332.27 435H514.357C519.557 435 523.813 439.056 523.813 444.003C523.813 448.951 519.557 453 514.357 453" fill="#E0E2EE"/>
<path id="Fill 17" fill-rule="evenodd" clip-rule="evenodd" d="M514.357 507H332.27C327.07 507 322.813 502.951 322.813 498.003C322.813 493.049 327.07 489 332.27 489H514.357C519.557 489 523.813 493.049 523.813 498.003C523.813 502.951 519.557 507 514.357 507" fill="#E0E2EE"/>
<path id="Fill 19" fill-rule="evenodd" clip-rule="evenodd" d="M427.316 561H332.311C327.088 561 322.813 556.951 322.813 552.003C322.813 547.049 327.088 543 332.311 543H427.316C432.539 543 436.813 547.049 436.813 552.003C436.813 556.951 432.539 561 427.316 561" fill="#E0E2EE"/>
</g>
<g id="search_2">
<path id="Fill 21" fill-rule="evenodd" clip-rule="evenodd" d="M619.078 491.21C582.668 527.614 526.301 531.721 485.379 503.615C480.149 499.958 475.171 495.851 470.529 491.21C468.139 488.829 465.887 486.371 463.765 483.783C459.52 478.615 455.802 473.104 452.755 467.409C447.388 457.791 443.739 447.585 441.746 437.036C435.318 403.952 444.93 368.342 470.529 342.755C496.189 317.091 531.806 307.542 564.895 313.908C575.438 315.962 585.653 319.61 595.273 324.916C600.976 328.03 606.412 331.748 611.589 335.992C614.169 338.106 616.628 340.366 619.01 342.755C623.659 347.396 627.828 352.366 631.416 357.602C659.535 398.51 655.42 454.875 619.078 491.21" fill="white" fill-opacity="0.1"/>
<path id="Fill 23" fill-rule="evenodd" clip-rule="evenodd" d="M608.89 484.04C571.01 521.926 509.623 521.919 471.736 484.04C433.899 446.202 433.899 384.808 471.786 346.928C509.623 309.091 571.01 309.091 608.848 346.928C646.727 384.808 646.727 446.202 608.89 484.04ZM628.33 327.467C579.708 278.844 500.918 278.844 452.296 327.467C403.681 376.082 403.639 454.921 452.254 503.543C496.505 547.781 565.865 551.771 614.649 515.449C619.414 511.896 624.002 507.914 628.38 503.543C632.75 499.166 636.732 494.577 640.278 489.813C676.6 441.021 672.575 371.711 628.33 327.467Z" fill="#E0E2EE"/>
<path id="Fill 25" fill-rule="evenodd" clip-rule="evenodd" d="M819.68 686.825L817.638 688.866C804.134 702.378 782.019 702.378 768.508 688.866L643.813 564.172L694.985 513L819.68 637.694C833.191 651.206 833.191 673.313 819.68 686.825" fill="url(#paint0_linear_1_112)"/>
<path id="Fill 27" fill-rule="evenodd" clip-rule="evenodd" d="M642.966 486L679.813 522.848L653.654 549L616.813 512.152C621.676 508.527 626.351 504.463 630.825 500.004C635.284 495.545 639.348 490.862 642.966 486" fill="#E0E2EE"/>
<path id="Fill 29" fill-rule="evenodd" clip-rule="evenodd" d="M817.813 636.161L766.967 687L757.813 677.839L808.653 627L817.813 636.161Z" fill="#EF545F"/>
<path id="Fill 31" fill-rule="evenodd" clip-rule="evenodd" d="M697.813 514.76L645.575 567L637.813 559.24L690.052 507L697.813 514.76Z" fill="url(#paint1_linear_1_112)"/>
<path id="Fill 33" fill-rule="evenodd" clip-rule="evenodd" d="M583.813 333.896L455.703 462C450.878 453.353 447.598 444.178 445.813 434.694L556.506 324C565.984 325.853 575.166 329.126 583.813 333.896" fill="white" fill-opacity="0.5"/>
<path id="Fill 35" fill-rule="evenodd" clip-rule="evenodd" d="M625.813 364.345L487.312 495C482.352 491.735 477.631 488.06 473.229 483.907C470.962 481.769 468.819 479.576 466.813 477.26L607.002 345C609.457 346.899 611.788 348.921 614.047 351.059C618.45 355.212 622.41 359.659 625.813 364.345" fill="white" fill-opacity="0.5"/>
</g>
</g>
</g>
<defs>
<linearGradient id="paint0_linear_1_112" x1="736.813" y1="420" x2="550.813" y2="606" gradientUnits="userSpaceOnUse">
<stop stop-color="#FF8960"/>
<stop offset="1" stop-color="#FF62A5"/>
</linearGradient>
<linearGradient id="paint1_linear_1_112" x1="667.813" y1="477" x2="607.813" y2="537" gradientUnits="userSpaceOnUse">
<stop stop-color="#FF404E"/>
<stop offset="1" stop-color="#FF62A5"/>
</linearGradient>
</defs>
</svg>
