<svg width="21" height="21" viewBox="0 0 21 21" fill="none" xmlns="http://www.w3.org/2000/svg">
<path d="M20.6229 16.8253L16.2068 12.5981C15.3958 11.8219 14.1174 11.8216 13.3062 12.5976C12.4425 13.4237 12.4425 14.8034 13.3062 15.6295L17.5917 19.7287C18.0735 20.1895 18.8664 20.1895 19.3482 19.7287L20.6229 18.5095C21.1047 18.0446 21.1047 17.282 20.6229 16.8253Z" fill="#B7B7B7"/>
<path d="M11.094 12.1349C11.5189 12.5414 12.1885 12.5414 12.6135 12.1349C13.066 11.7021 13.066 10.9792 12.6135 10.5463L12.4566 10.3962C11.9842 9.94443 11.9343 9.21822 12.2105 8.6258C13.2481 6.40017 12.8156 3.6972 10.9073 1.87188C8.43891 -0.489194 4.42724 -0.489194 1.95458 1.87188C-0.518078 4.23295 -0.513815 8.0702 1.95458 10.4354C3.86931 12.2668 6.70779 12.6772 9.03905 11.6718C9.65207 11.4074 10.3846 11.4564 10.867 11.9179L11.094 12.1349ZM3.18238 9.24462C1.39184 7.53193 1.39184 4.75491 3.18238 3.0463C4.97293 1.3336 7.87617 1.3336 9.66245 3.0463C11.453 4.75899 11.453 7.536 9.66245 9.24462C7.87617 10.9573 4.97293 10.9573 3.18238 9.24462Z" fill="#B7B7B7"/>
</svg>
